<svg id="visual" viewBox="0 0 1664 1110" width="1664" height="1110" xmlns="http://www.w3.org/2000/svg" xmlns:xlink="http://www.w3.org/1999/xlink" version="1.1"><rect x="0" y="0" width="1664" height="1110" fill="#001220"></rect><path d="M0 465L39.7 458C79.3 451 158.7 437 237.8 405.2C317 373.3 396 323.7 475.2 329C554.3 334.3 633.7 394.7 713 441.7C792.3 488.7 871.7 522.3 951 500.5C1030.3 478.7 1109.7 401.3 1188.8 385C1268 368.7 1347 413.3 1426.2 429.7C1505.3 446 1584.7 434 1624.3 428L1664 422L1664 1111L1624.3 1111C1584.7 1111 1505.3 1111 1426.2 1111C1347 1111 1268 1111 1188.8 1111C1109.7 1111 1030.3 1111 951 1111C871.7 1111 792.3 1111 713 1111C633.7 1111 554.3 1111 475.2 1111C396 1111 317 1111 237.8 1111C158.7 1111 79.3 1111 39.7 1111L0 1111Z" fill="#0066ff"></path><path d="M0 538L39.7 524.5C79.3 511 158.7 484 237.8 498C317 512 396 567 475.2 555.5C554.3 544 633.7 466 713 449.7C792.3 433.3 871.7 478.7 951 484.5C1030.3 490.3 1109.7 456.7 1188.8 464.2C1268 471.7 1347 520.3 1426.2 527.7C1505.3 535 1584.7 501 1624.3 484L1664 467L1664 1111L1624.3 1111C1584.7 1111 1505.3 1111 1426.2 1111C1347 1111 1268 1111 1188.8 1111C1109.7 1111 1030.3 1111 951 1111C871.7 1111 792.3 1111 713 1111C633.7 1111 554.3 1111 475.2 1111C396 1111 317 1111 237.8 1111C158.7 1111 79.3 1111 39.7 1111L0 1111Z" fill="#005edd"></path><path d="M0 613L39.7 616.8C79.3 620.7 158.7 628.3 237.8 633.5C317 638.7 396 641.3 475.2 654.2C554.3 667 633.7 690 713 687.5C792.3 685 871.7 657 951 625.8C1030.3 594.7 1109.7 560.3 1188.8 541.2C1268 522 1347 518 1426.2 538.7C1505.3 559.3 1584.7 604.7 1624.3 627.3L1664 650L1664 1111L1624.3 1111C1584.7 1111 1505.3 1111 1426.2 1111C1347 1111 1268 1111 1188.8 1111C1109.7 1111 1030.3 1111 951 1111C871.7 1111 792.3 1111 713 1111C633.7 1111 554.3 1111 475.2 1111C396 1111 317 1111 237.8 1111C158.7 1111 79.3 1111 39.7 1111L0 1111Z" fill="#0055bb"></path><path d="M0 782L39.7 757C79.3 732 158.7 682 237.8 685.2C317 688.3 396 744.7 475.2 750.2C554.3 755.7 633.7 710.3 713 682.8C792.3 655.3 871.7 645.7 951 634.3C1030.3 623 1109.7 610 1188.8 623.3C1268 636.7 1347 676.3 1426.2 704.5C1505.3 732.7 1584.7 749.3 1624.3 757.7L1664 766L1664 1111L1624.3 1111C1584.7 1111 1505.3 1111 1426.2 1111C1347 1111 1268 1111 1188.8 1111C1109.7 1111 1030.3 1111 951 1111C871.7 1111 792.3 1111 713 1111C633.7 1111 554.3 1111 475.2 1111C396 1111 317 1111 237.8 1111C158.7 1111 79.3 1111 39.7 1111L0 1111Z" fill="#004b99"></path><path d="M0 742L39.7 752.8C79.3 763.7 158.7 785.3 237.8 785.5C317 785.7 396 764.3 475.2 762C554.3 759.7 633.7 776.3 713 783.8C792.3 791.3 871.7 789.7 951 798.5C1030.3 807.3 1109.7 826.7 1188.8 840.8C1268 855 1347 864 1426.2 859.8C1505.3 855.7 1584.7 838.3 1624.3 829.7L1664 821L1664 1111L1624.3 1111C1584.7 1111 1505.3 1111 1426.2 1111C1347 1111 1268 1111 1188.8 1111C1109.7 1111 1030.3 1111 951 1111C871.7 1111 792.3 1111 713 1111C633.7 1111 554.3 1111 475.2 1111C396 1111 317 1111 237.8 1111C158.7 1111 79.3 1111 39.7 1111L0 1111Z" fill="#003f77"></path><path d="M0 866L39.7 877C79.3 888 158.7 910 237.8 927C317 944 396 956 475.2 950.8C554.3 945.7 633.7 923.3 713 906.7C792.3 890 871.7 879 951 870.3C1030.3 861.7 1109.7 855.3 1188.8 866.7C1268 878 1347 907 1426.2 924.2C1505.3 941.3 1584.7 946.7 1624.3 949.3L1664 952L1664 1111L1624.3 1111C1584.7 1111 1505.3 1111 1426.2 1111C1347 1111 1268 1111 1188.8 1111C1109.7 1111 1030.3 1111 951 1111C871.7 1111 792.3 1111 713 1111C633.7 1111 554.3 1111 475.2 1111C396 1111 317 1111 237.8 1111C158.7 1111 79.3 1111 39.7 1111L0 1111Z" fill="#003154"></path><path d="M0 1046L39.7 1044.2C79.3 1042.3 158.7 1038.7 237.8 1018C317 997.3 396 959.7 475.2 944C554.3 928.3 633.7 934.7 713 936C792.3 937.3 871.7 933.7 951 942.3C1030.3 951 1109.7 972 1188.8 986C1268 1000 1347 1007 1426.2 1003C1505.3 999 1584.7 984 1624.3 976.5L1664 969L1664 1111L1624.3 1111C1584.7 1111 1505.3 1111 1426.2 1111C1347 1111 1268 1111 1188.8 1111C1109.7 1111 1030.3 1111 951 1111C871.7 1111 792.3 1111 713 1111C633.7 1111 554.3 1111 475.2 1111C396 1111 317 1111 237.8 1111C158.7 1111 79.3 1111 39.7 1111L0 1111Z" fill="#002233"></path></svg>